# xmcd CD database file
#
# Track frame offsets:
#	150
#	14215
#	27447
#	45917
#	68590
#	82965
#	104490
#	127315
#	142727
#	161737
#	186015
#
# Disc length: 2674 seconds
#
# Revision: 0
# Processed by: cddbd v1.5PL3 Copyright (c) Steve Scherf et al.
# Submitted via: CDex 1.51
#
DISCID=910a700b
DTITLE=LU-NA - PURE NO.1
DYEAR=1991
DGENRE=JPop
TTITLE0=NEVER STOP
TTITLE1=Knockout Playboy
TTITLE2=モノクローム
TTITLE3=Dear My Sister
TTITLE4=お願い Moon Light
TTITLE5=だきしめて Silent Night
TTITLE6=SEPARATE WAY
TTITLE7=SA・I・TE・I アバンチュール
TTITLE8=After Glow
TTITLE9=Dreamy Dreamer
TTITLE10=Don't Stop Walking
EXTD=YEAR: 1991
EXTT0=
EXTT1=
EXTT2=
EXTT3=
EXTT4=
EXTT5=
EXTT6=
EXTT7=
EXTT8=
EXTT9=
EXTT10=
PLAYORDER=
